<svg width="378" height="34" viewBox="0 0 378 34" fill="none" xmlns="http://www.w3.org/2000/svg">
<path d="M8.87308 18.1833C8.87308 16.3737 7.51207 15.102 5.84026 15.102C4.16844 15.102 2.80742 16.3952 2.80742 18.1833C2.80742 19.9499 4.16844 21.2647 5.84026 21.2647C7.51376 21.263 8.87308 19.9928 8.87308 18.1833ZM8.89698 23.5691V22.1686C8.07217 23.1385 6.84436 23.7406 5.37406 23.7406C2.31902 23.7406 0 21.3702 0 18.1833C0 15.0162 2.40782 12.6045 5.44236 12.6045C6.87001 12.6045 8.07392 13.2083 8.89867 14.1551V12.7975H11.6412V23.5691H8.89698Z" fill="#1D2D35" fill-opacity="0.5"/>
<path d="M24.9627 21.1772C24.003 21.1772 23.7366 20.8324 23.7366 19.9285V15.1465H25.4989V12.7975H23.7366V10.1698H20.9257V12.7975H17.3055V12.1427C17.3055 11.2371 17.6624 10.8923 18.6443 10.8923H19.2608V8.80234H17.9083C15.5892 8.80234 14.4963 9.53473 14.4963 11.7748V12.7959H12.9355V15.1448H14.4963V23.5674H17.3072V15.1448H20.9274V20.4233C20.9274 22.6205 21.7967 23.5691 24.0713 23.5691H25.5211V21.1772H24.9627Z" fill="#1D2D35" fill-opacity="0.5"/>
<path d="M35.0432 17.2133C34.8434 15.8128 33.66 14.9732 32.2785 14.9732C30.8952 14.9732 29.758 15.7914 29.4694 17.2133H35.0432ZM29.4455 18.8942C29.647 20.4877 30.8287 21.3933 32.3229 21.3933C33.5046 21.3933 34.4199 20.8538 34.9544 19.9928H37.8318C37.1624 22.2758 35.0432 23.7406 32.2563 23.7406C28.8887 23.7406 26.5253 21.4576 26.5253 18.2047C26.5253 14.9518 29.0237 12.6028 32.3246 12.6028C35.6478 12.6028 38.0556 14.9733 38.0556 18.2047C38.0556 18.4422 38.0334 18.6781 37.9889 18.8942H29.4455Z" fill="#1D2D35" fill-opacity="0.5"/>
<path d="M55.9264 18.1833C55.9264 16.438 54.5654 15.102 52.8935 15.102C51.2217 15.102 49.8607 16.3952 49.8607 18.1833C49.8607 19.9499 51.2217 21.2647 52.8935 21.2647C54.5654 21.263 55.9264 19.9285 55.9264 18.1833ZM47.0943 12.7975H49.8368V14.198C50.6616 13.2066 51.8877 12.6045 53.3597 12.6045C56.3703 12.6045 58.7338 14.9964 58.7338 18.1618C58.7338 21.3289 56.3259 23.7422 53.2931 23.7422C51.8877 23.7422 50.7282 23.2028 49.9256 22.2989V28.0014H47.0943V12.7975Z" fill="#1D2D35" fill-opacity="0.5"/>
<path d="M68.6195 18.1833C68.6195 16.3737 67.2602 15.102 65.5865 15.102C63.9148 15.102 62.5538 16.3952 62.5538 18.1833C62.5538 19.9499 63.9148 21.2647 65.5865 21.2647C67.2602 21.263 68.6195 19.9928 68.6195 18.1833ZM68.6435 23.5691V22.1686C67.8187 23.1385 66.5906 23.7406 65.1202 23.7406C62.0654 23.7406 59.7464 21.3702 59.7464 18.1833C59.7464 15.0162 62.1542 12.6045 65.1871 12.6045C66.6146 12.6045 67.8187 13.2083 68.6435 14.1551V12.7975H71.3862V23.5691H68.6435Z" fill="#1D2D35" fill-opacity="0.5"/>
<path d="M42.1505 13.8532C42.1505 13.8532 42.849 12.6045 44.5583 12.6045C45.2892 12.6045 45.7623 12.847 45.7623 12.847V15.5952C45.7623 15.5952 44.7308 14.9799 43.783 15.1036C42.8353 15.2273 42.2359 16.0686 42.2393 17.1936V23.5707H39.408V12.7992H42.1505V13.8532Z" fill="#1D2D35" fill-opacity="0.5"/>
<path d="M84.1949 12.7975L77.2704 27.9667H74.3504L77.069 22.1026L72.4721 12.7975H75.7818L78.4712 19.0146L81.2308 12.7975H84.1949Z" fill="#1D2D35" fill-opacity="0.5"/>
<path d="M106.3 12.5534L99.4348 8.72645C97.4195 7.60312 94.9008 9.00688 94.9008 11.2552V11.6478C94.9008 12.0024 95.097 12.3307 95.4146 12.5072L96.7109 13.2297C97.0915 13.4425 97.5662 13.1769 97.5662 12.753V11.7765C97.5662 11.2882 98.1131 10.983 98.5502 11.2272L104.496 14.5427C104.934 14.7869 104.934 15.3972 104.496 15.6397L98.5502 18.9553C98.1131 19.1994 97.5662 18.8942 97.5662 18.406V17.8863C97.5662 15.638 95.0476 14.2326 93.031 15.3576L86.1662 19.1845C84.151 20.3079 84.151 23.1187 86.1662 24.242L93.031 28.069C95.0457 29.1923 97.5662 27.7886 97.5662 25.5402V25.1476C97.5662 24.793 97.3701 24.4664 97.0525 24.2882L95.7562 23.5641C95.3756 23.3513 94.9008 23.6169 94.9008 24.0408V25.0174C94.9008 25.5056 94.3547 25.8107 93.9169 25.5666L87.9711 22.251C87.534 22.0069 87.534 21.3966 87.9711 21.1525L93.9169 17.8368C94.3547 17.5927 94.9008 17.8979 94.9008 18.3862V18.9058C94.9008 21.1541 97.4195 22.5595 99.4348 21.4345L106.3 17.6076C108.315 16.4875 108.315 13.6767 106.3 12.5534Z" fill="#1D2D35" fill-opacity="0.5"/>
<g clip-path="url(#clip0_58_81)">
<path d="M169.811 11.1575H174.614C177.274 11.1575 178.655 12.2484 178.655 14.2967V14.3987C178.693 14.9989 178.515 15.5928 178.152 16.0724C177.789 16.552 177.266 16.8854 176.678 17.012C177.382 17.074 178.033 17.4112 178.49 17.9505C178.947 18.4897 179.173 19.1875 179.118 19.8922V19.9629C179.118 22.1995 177.651 23.3767 174.833 23.3767H169.811V11.1575ZM174.166 16.1723C175.501 16.1723 176.026 15.6936 176.026 14.6027V14.5321C176.026 13.5119 175.446 13.0489 174.151 13.0489H172.511V16.188L174.166 16.1723ZM174.402 21.4539C175.767 21.4539 176.387 20.834 176.387 19.7274V19.6568C176.387 18.5267 175.767 17.9538 174.268 17.9538H172.511V21.4618L174.402 21.4539Z" fill="#8C9498"/>
<path d="M179.841 20.8889C179.841 18.8014 181.748 18.0166 184.487 18.0166H185.491V17.6634C185.491 16.604 185.169 16.0232 184.039 16.0232C183.856 16.0015 183.671 16.0175 183.494 16.0701C183.318 16.1228 183.154 16.211 183.013 16.3293C182.872 16.4477 182.756 16.5937 182.674 16.7584C182.591 16.923 182.543 17.1028 182.532 17.2867H180.178C180.335 15.1678 182.007 14.2261 184.196 14.2261C186.386 14.2261 187.932 15.1129 187.932 17.5379V23.361H185.522V22.2858C185.22 22.7119 184.812 23.0522 184.339 23.2737C183.866 23.4951 183.344 23.5901 182.823 23.5494C181.206 23.5494 179.841 22.7646 179.841 20.8889ZM185.491 20.2375V19.4528H184.534C183.097 19.4528 182.266 19.7667 182.266 20.7163C182.266 21.3676 182.658 21.7993 183.56 21.7993C184.651 21.8307 185.491 21.2264 185.491 20.2375Z" fill="#8C9498"/>
<path d="M188.975 20.5593H191.283C191.385 21.3441 191.777 21.8307 192.852 21.8307C193.81 21.8307 194.257 21.4697 194.257 20.8497C194.257 20.2297 193.723 19.9786 192.444 19.7981C190.09 19.4371 189.148 18.7543 189.148 17.0121C189.148 15.2698 190.859 14.2261 192.68 14.2261C194.665 14.2261 196.148 14.9481 196.368 16.9964H194.1C193.967 16.2587 193.551 15.9212 192.703 15.9212C191.856 15.9212 191.44 16.2979 191.44 16.8394C191.44 17.3809 191.863 17.6242 193.158 17.8126C195.395 18.1343 196.627 18.6994 196.627 20.6142C196.627 22.5291 195.23 23.5494 192.868 23.5494C190.506 23.5494 189.062 22.4899 188.975 20.5593Z" fill="#8C9498"/>
<path d="M197.263 19.0054V18.872C197.233 18.2587 197.331 17.6459 197.55 17.0724C197.77 16.4989 198.106 15.9772 198.538 15.5405C198.969 15.1037 199.487 14.7614 200.058 14.5351C200.629 14.3088 201.24 14.2036 201.854 14.226C204.161 14.226 206.209 15.5759 206.209 18.77V19.4527H199.798C199.86 20.936 200.669 21.8071 202.011 21.8071C203.157 21.8071 203.722 21.3127 203.879 20.5593H206.233C205.943 22.4899 204.404 23.565 201.964 23.565C199.225 23.5493 197.263 21.862 197.263 19.0054ZM203.8 17.9302C203.722 16.5804 203.031 15.9683 201.854 15.9683C201.324 15.9658 200.813 16.1688 200.43 16.5346C200.047 16.9005 199.82 17.4007 199.798 17.9302H203.8Z" fill="#8C9498"/>
<path d="M206.861 19.0053V18.8719C206.831 18.2572 206.929 17.6431 207.15 17.0685C207.37 16.4939 207.708 15.9714 208.141 15.5344C208.574 15.0974 209.094 14.7554 209.666 14.5301C210.239 14.3049 210.853 14.2013 211.467 14.226C213.539 14.226 215.446 15.1285 215.674 17.6947H213.32C213.304 17.4745 213.244 17.2596 213.144 17.0629C213.043 16.8662 212.905 16.6916 212.736 16.5496C212.566 16.4076 212.37 16.301 212.159 16.2362C211.948 16.1713 211.726 16.1496 211.507 16.1722C210.227 16.1722 209.372 17.1297 209.372 18.8405V18.9739C209.372 20.7711 210.157 21.6893 211.562 21.6893C211.801 21.7031 212.04 21.6691 212.266 21.5895C212.492 21.5098 212.699 21.386 212.877 21.2254C213.054 21.0647 213.198 20.8703 213.299 20.6535C213.401 20.4368 213.459 20.202 213.469 19.9628H215.705C215.572 22.0817 214.034 23.5493 211.436 23.5493C208.838 23.5493 206.861 21.9248 206.861 19.0053Z" fill="#8C9498"/>
<path d="M216.278 20.8889C216.278 18.8014 218.185 18.0166 220.916 18.0166H221.929V17.6634C221.929 16.604 221.599 16.0232 220.477 16.0232C220.293 15.9992 220.106 16.0134 219.927 16.065C219.749 16.1165 219.583 16.2044 219.44 16.323C219.297 16.4416 219.18 16.5884 219.097 16.7542C219.013 16.92 218.965 17.1013 218.954 17.2867H216.6C216.757 15.1678 218.429 14.226 220.61 14.226C222.792 14.226 224.354 15.1129 224.354 17.5379V23.361H221.944V22.2858C221.642 22.7119 221.234 23.0522 220.761 23.2737C220.288 23.4951 219.766 23.5901 219.245 23.5493C217.675 23.5493 216.278 22.7645 216.278 20.8889ZM221.929 20.2375V19.4527H220.987C219.551 19.4527 218.711 19.7667 218.711 20.7162C218.711 21.3676 219.111 21.7993 220.014 21.7993C221.12 21.8306 221.96 21.2264 221.96 20.2375H221.929Z" fill="#8C9498"/>
<path d="M226.096 14.3987H228.568V15.7642C228.837 15.279 229.234 14.8765 229.715 14.6C230.197 14.3234 230.744 14.1833 231.299 14.1946C231.829 14.1523 232.358 14.2822 232.807 14.565C233.257 14.8479 233.603 15.2685 233.795 15.7642C234.124 15.2719 234.572 14.8703 235.097 14.596C235.622 14.3218 236.208 14.1838 236.8 14.1946C238.456 14.1946 239.735 15.2384 239.735 17.6084V23.3296H237.279V17.9145C237.279 16.7687 236.769 16.2586 235.874 16.2586C235.636 16.2483 235.399 16.2894 235.178 16.3792C234.958 16.4689 234.759 16.6053 234.596 16.7789C234.433 16.9524 234.309 17.1592 234.233 17.385C234.157 17.6108 234.131 17.8503 234.156 18.0872V23.3609H231.691V17.9145C231.691 16.7687 231.166 16.2586 230.294 16.2586C230.056 16.2471 229.818 16.2873 229.596 16.3766C229.374 16.4659 229.175 16.602 229.011 16.7758C228.847 16.9495 228.722 17.1566 228.646 17.383C228.569 17.6094 228.543 17.8496 228.568 18.0872V23.3609H226.096V14.3987Z" fill="#8C9498"/>
<path d="M241.431 14.3987H243.911V15.8034C244.206 15.3121 244.624 14.9057 245.123 14.6237C245.622 14.3418 246.186 14.1939 246.759 14.1946C248.949 14.1946 250.683 15.8191 250.683 18.7699V18.9112C250.683 21.862 249.012 23.5179 246.759 23.5179C246.187 23.5414 245.618 23.4076 245.116 23.1309C244.614 22.8542 244.197 22.4452 243.911 21.9483V26.4059H241.431V14.3987ZM248.141 18.7935C248.141 16.9806 247.254 16.0938 246.006 16.0938C244.758 16.0938 243.824 16.9963 243.824 18.7935V18.9269C243.824 20.7162 244.68 21.5873 246.03 21.5873C247.379 21.5873 248.141 20.677 248.141 18.9583V18.7935Z" fill="#8C9498"/>
<path fill-rule="evenodd" clip-rule="evenodd" d="M151.463 6.89219C144.499 6.89219 140.867 12.7906 138.834 18.5558C138.588 19.2527 137.824 19.6184 137.127 19.3726C136.628 19.1968 136.299 18.7558 136.242 18.2639C136.22 18.068 136.24 17.8641 136.31 17.6657C138.373 11.816 142.589 4.21606 151.463 4.21606C156.101 4.21606 159.42 7.28441 161.567 10.9706C163.72 14.6666 164.868 19.2429 165.126 22.9379C165.145 23.2035 165.084 23.4686 164.951 23.6993C163.708 25.8577 161.639 27.2643 159.281 28.1258C156.929 28.9852 154.204 29.3362 151.473 29.3371C149.153 29.3733 146.852 28.909 144.727 27.9756C142.599 27.0408 140.698 25.6576 139.154 23.9204C138.825 23.5508 138.727 23.0302 138.899 22.5665L138.9 22.5638L138.902 22.5587L138.909 22.5412L138.932 22.4787C138.953 22.4253 138.982 22.3486 139.02 22.252C139.097 22.059 139.207 21.7857 139.347 21.4587C139.626 20.8076 140.026 19.93 140.507 19.044C140.982 18.1696 141.565 17.2297 142.221 16.4891C142.82 15.8139 143.75 14.9915 144.94 14.9834L144.949 14.9833C145.79 14.9833 146.481 15.3684 146.978 15.7386C147.479 16.1117 147.934 16.5859 148.299 16.972C148.341 17.0163 148.382 17.0594 148.421 17.1014C148.761 17.4616 149.021 17.7371 149.268 17.9433C149.296 17.9665 149.321 17.987 149.344 18.005C149.425 17.923 149.52 17.8154 149.631 17.6787C150.023 17.1926 150.463 16.5077 150.889 15.7745C151.31 15.0509 151.693 14.3221 151.972 13.7708C152.111 13.496 152.223 13.2676 152.301 13.1086C152.339 13.0292 152.369 12.9673 152.388 12.9257L152.411 12.8792L152.416 12.8681L152.417 12.8657C152.731 12.1967 153.527 11.9082 154.197 12.2218C154.866 12.5355 155.154 13.3322 154.84 14.0013L154.837 14.0075L154.83 14.0222L154.805 14.0764C154.782 14.1232 154.75 14.1908 154.709 14.2761C154.626 14.4468 154.507 14.6892 154.36 14.9796C154.067 15.5583 153.658 16.3363 153.203 17.1195C152.753 17.8931 152.233 18.715 151.714 19.3589C151.456 19.6782 151.164 19.9976 150.848 20.2488C150.569 20.4708 150.077 20.7986 149.446 20.7986C148.611 20.7986 147.954 20.3327 147.552 19.9968C147.173 19.6803 146.795 19.2781 146.477 18.9401C146.435 18.8955 146.394 18.8521 146.354 18.81C145.977 18.4113 145.669 18.1007 145.38 17.8852C145.126 17.6964 144.997 17.6654 144.96 17.6604C144.96 17.6604 144.957 17.6614 144.955 17.6622C144.914 17.6767 144.668 17.7633 144.224 18.2639C143.765 18.7829 143.294 19.5194 142.859 20.3206C142.431 21.1101 142.066 21.9071 141.808 22.5116C141.774 22.5895 141.743 22.6639 141.713 22.7346C142.891 23.908 144.277 24.855 145.804 25.5255C147.579 26.3054 149.502 26.6928 151.441 26.6612L151.463 26.661C153.994 26.661 156.39 26.333 158.363 25.6122C160.178 24.949 161.562 23.9825 162.423 22.6994C162.131 19.4111 161.084 15.4578 159.255 12.3175C157.341 9.03092 154.743 6.89219 151.463 6.89219ZM149.124 18.1951C149.124 18.1951 149.13 18.1907 149.141 18.1849C149.13 18.1928 149.124 18.1951 149.124 18.1951Z" fill="#8C9498"/>
</g>
<g clip-path="url(#clip1_58_81)">
<path fill-rule="evenodd" clip-rule="evenodd" d="M280.408 24.8903C278.151 22.6518 278.151 19.0225 280.408 16.784L286.54 10.7042C288.449 8.81184 291.36 8.51918 293.578 9.82618C294.265 10.2304 294.259 11.1578 293.694 11.7175C293.13 12.2771 292.208 12.2289 291.442 12.0067C290.461 11.7222 289.358 11.9636 288.584 12.7307L282.452 18.8106C281.323 19.9298 281.323 21.7445 282.452 22.8637C283.581 23.983 285.411 23.983 286.54 22.8637L298.804 10.7042C301.062 8.46573 304.722 8.46572 306.98 10.7042L313.112 16.784C315.37 19.0224 315.37 22.6518 313.112 24.8903C310.854 27.1288 307.194 27.1288 304.936 24.8903L302.892 22.8637L300.337 25.397C298.429 27.2893 295.518 27.5819 293.299 26.2749C292.613 25.8707 292.619 24.9433 293.183 24.3837C293.748 23.824 294.669 23.8722 295.435 24.0943C296.416 24.3789 297.519 24.1375 298.293 23.3704L300.921 20.7648C302.01 19.6855 303.774 19.6855 304.863 20.7648L306.98 22.8637C308.109 23.983 309.939 23.983 311.068 22.8637C312.197 21.7445 312.197 19.9298 311.068 18.8106L304.936 12.7308C303.807 11.6116 301.977 11.6116 300.848 12.7308L288.584 24.8904C286.326 27.1289 282.666 27.1289 280.408 24.8903Z" fill="#1D2D35" fill-opacity="0.5"/>
<path d="M337.897 12.2741C336.476 12.2741 335.4 12.7828 334.689 13.8002C334.065 12.7828 333.075 12.2741 331.762 12.2741C330.406 12.2741 329.416 12.7404 328.77 13.6942V12.5708H325.994V23.1687H328.77V17.2126C328.77 15.6654 329.567 14.8176 330.794 14.8176C331.934 14.8176 332.602 15.5594 332.602 16.8312V23.1687H335.378V17.2126C335.378 15.6654 336.11 14.8176 337.38 14.8176C338.521 14.8176 339.188 15.5594 339.188 16.8312V23.1687H341.965V16.6404C341.965 13.9909 340.372 12.2741 337.897 12.2741Z" fill="#1D2D35" fill-opacity="0.5"/>
<path d="M352.287 13.8214C351.448 12.7828 350.285 12.2741 348.779 12.2741C347.336 12.2741 346.11 12.8252 345.076 13.9061C344.065 14.9871 343.548 16.3013 343.548 17.8698C343.548 19.4382 344.065 20.7736 345.076 21.8546C346.11 22.9355 347.336 23.4654 348.779 23.4654C350.285 23.4654 351.448 22.9567 352.287 21.9181V23.1687H355.064V12.5708H352.287V13.8214ZM347.164 20.0317C346.605 19.4594 346.325 18.7387 346.325 17.8698C346.325 17.0007 346.605 16.2801 347.164 15.729C347.724 15.1567 348.434 14.8811 349.295 14.8811C350.156 14.8811 350.866 15.1567 351.426 15.729C352.007 16.2801 352.287 17.0007 352.287 17.8698C352.287 18.7387 352.007 19.4594 351.426 20.0317C350.866 20.5828 350.156 20.8583 349.295 20.8583C348.434 20.8583 347.724 20.5828 347.164 20.0317Z" fill="#1D2D35" fill-opacity="0.5"/>
<path d="M365.309 14.3936V12.5708H357.237V15.1355H361.563L357.021 21.3458V23.1686H365.524V20.6039H360.745L365.309 14.3936Z" fill="#1D2D35" fill-opacity="0.5"/>
<path d="M377.134 18.9931C377.198 18.5904 377.241 18.2301 377.241 17.8698C377.241 16.2801 376.725 14.9659 375.692 13.8849C374.68 12.804 373.367 12.2741 371.796 12.2741C370.138 12.2741 368.761 12.804 367.706 13.8849C366.651 14.9447 366.113 16.2801 366.113 17.8698C366.113 19.4806 366.651 20.816 367.728 21.8757C368.804 22.9355 370.225 23.4654 372.011 23.4654C374.077 23.4654 375.649 22.7024 376.703 21.1975L374.465 19.9257C373.927 20.6252 373.109 20.9855 372.054 20.9855C370.397 20.9855 369.385 20.3285 369.019 18.9931H377.134ZM368.976 16.8735C369.299 15.517 370.31 14.7328 371.796 14.7328C373.065 14.7328 374.142 15.4322 374.465 16.8735H368.976Z" fill="#1D2D35" fill-opacity="0.5"/>
</g>
<defs>
<clipPath id="clip0_58_81">
<rect width="114.552" height="33.3241" fill="white" transform="translate(136.233)"/>
</clipPath>
<clipPath id="clip1_58_81">
<rect width="98.5839" height="33.3241" fill="white" transform="translate(278.715)"/>
</clipPath>
</defs>
</svg>
