<?xml version="1.0" encoding="UTF-8"?>
<svg version="1.1" xmlns="http://www.w3.org/2000/svg" width="50" height="50">
<path d="M0 0 C6.21022081 3.77380156 11.12756342 9.38269026 13.4375 16.3125 C14.06027571 24.34732765 14.41847862 31.64415403 9.4375 38.3125 C4.85388456 43.61984419 -0.46283458 47.99473686 -7.63671875 48.55078125 C-16.8461929 48.73994883 -22.33912774 47.95995786 -29.3125 41.9375 C-35.62744532 34.57006379 -36.92244811 29.37808317 -36.84375 19.8359375 C-36.26602578 12.59833686 -33.0249729 7.99461963 -27.5625 3.3125 C-19.66584559 -2.37309117 -9.18150824 -4.36209587 0 0 Z " fill="#030407" transform="translate(36.5625,1.6875)"/>
<path d="M0 0 C2.81951844 1.72303905 3.78470258 3.21229508 4.65234375 6.38671875 C5.00266467 8.13832334 5.32169999 9.89654669 5.60546875 11.66015625 C5.96256924 14.14452609 5.96256924 14.14452609 7 17 C0.4 17 -6.2 17 -13 17 C-12.34 15.35 -11.68 13.7 -11 12 C-10.70237648 9.92928065 -10.70237648 9.92928065 -10.625 7.9375 C-10 4 -10 4 -8.3125 1.5 C-5.25655959 -0.48223162 -3.5787606 -0.5964601 0 0 Z " fill="#06070A" transform="translate(28,14)"/>
<path d="M0 0 C2.81951844 1.72303905 3.78470258 3.21229508 4.65234375 6.38671875 C5.00266467 8.13832334 5.32169999 9.89654669 5.60546875 11.66015625 C5.96256924 14.14452609 5.96256924 14.14452609 7 17 C0.4 17 -6.2 17 -13 17 C-12.34 15.35 -11.68 13.7 -11 12 C-10.70237648 9.92928065 -10.70237648 9.92928065 -10.625 7.9375 C-10 4 -10 4 -8.3125 1.5 C-5.25655959 -0.48223162 -3.5787606 -0.5964601 0 0 Z M-6.80078125 3.11328125 C-8.29328328 5.46141962 -8.7251278 7.44883387 -9.1875 10.1875 C-9.455625 11.775625 -9.72375 13.36375 -10 15 C-5.38 15 -0.76 15 4 15 C3.01 11.04 2.02 7.08 1 3 C-4.48574057 1.40889143 -4.48574057 1.40889143 -6.80078125 3.11328125 Z " fill="#E4E4E5" transform="translate(28,14)"/>
<path d="M0 0 C0.99 0.66 1.98 1.32 3 2 C3 2.66 3 3.32 3 4 C-3.27 4 -9.54 4 -16 4 C-15.67 3.34 -15.34 2.68 -15 2 C-10.05 2 -5.1 2 0 2 C0 1.34 0 0.68 0 0 Z " fill="#FCFCFC" transform="translate(32,27)"/>
</svg>
