<?xml version="1.0" standalone="no"?>
<!DOCTYPE svg PUBLIC "-//W3C//DTD SVG 20010904//EN"
 "http://www.w3.org/TR/2001/REC-SVG-20010904/DTD/svg10.dtd">
<svg version="1.0" xmlns="http://www.w3.org/2000/svg"
 width="318.000000pt" height="315.000000pt" viewBox="0 0 318.000000 315.000000"
 preserveAspectRatio="xMidYMid meet">

<g transform="translate(0.000000,315.000000) scale(0.100000,-0.100000)"
fill="#000000" stroke="none">
<path d="M1449 1936 c-101 -27 -144 -86 -160 -219 -5 -45 -8 -246 -7 -446 l3
-364 26 -19 c24 -18 33 -19 128 -8 57 6 142 22 189 36 405 117 703 487 729
904 5 82 3 98 -11 113 -16 16 -54 17 -434 16 -297 0 -430 -4 -463 -13z"/>
</g>
</svg>
